<svg xmlns="http://www.w3.org/2000/svg" width="1640" height="1010" viewBox="0 0 1640 1010">
<defs>
<style>
text{font-family:Helvetica,Arial,sans-serif}
.title{font-size:30px;font-weight:700;fill:#111827}
.subtitle{font-size:16px;fill:#6B7280}
.ct{font-size:17px;font-weight:700;fill:#111827}
.cs{font-size:13px;font-weight:400;fill:#6B7280}
.nt{font-size:15px;font-weight:700;fill:#111827;text-anchor:middle}
.ns{font-size:12px;fill:#374151;text-anchor:middle}
.np{font-size:12px;fill:#6B7280;font-style:italic;text-anchor:middle}
.el{font-size:12.5px;font-weight:600}
</style>
<marker id="arr" viewBox="0 0 10 10" refX="9" refY="5" markerWidth="7" markerHeight="7" orient="auto-start-reverse"><path d="M0,0 L10,5 L0,10 z" fill="#374151"/></marker>
<marker id="red" viewBox="0 0 10 10" refX="9" refY="5" markerWidth="7" markerHeight="7" orient="auto-start-reverse"><path d="M0,0 L10,5 L0,10 z" fill="#DC2626"/></marker>
<marker id="pur" viewBox="0 0 10 10" refX="9" refY="5" markerWidth="7" markerHeight="7" orient="auto-start-reverse"><path d="M0,0 L10,5 L0,10 z" fill="#7C3AED"/></marker>
<marker id="gry" viewBox="0 0 10 10" refX="9" refY="5" markerWidth="7" markerHeight="7" orient="auto-start-reverse"><path d="M0,0 L10,5 L0,10 z" fill="#6B7280"/></marker>
<marker id="grn" viewBox="0 0 10 10" refX="9" refY="5" markerWidth="7" markerHeight="7" orient="auto-start-reverse"><path d="M0,0 L10,5 L0,10 z" fill="#059669"/></marker>
</defs><rect width="100%" height="100%" fill="white"/>
<text x="820.0" y="46" class="title" text-anchor="middle">PR-to-Production Agent Team</text>
<text x="820.0" y="72" class="subtitle" text-anchor="middle">Multi-agent SDLC on AWS · a supervisor orchestrates least-privilege specialists, with a human gate before deploy</text>
<rect x="30" y="100" width="270" height="560" rx="16" fill="#EFF6FF" stroke="#93C5FD" stroke-width="1.6"/>
<text x="46" y="128" class="ct">1  Trigger<tspan class="cs" dx="10"></tspan></text>
<rect x="330" y="100" width="590" height="560" rx="16" fill="#FFFBEB" stroke="#F59E0B" stroke-width="1.6"/>
<text x="346" y="128" class="ct">2  Orchestration<tspan class="cs" dx="10">LangGraph on ECS Fargate</tspan></text>
<rect x="1000" y="100" width="290" height="560" rx="16" fill="#F3F4F6" stroke="#9CA3AF" stroke-width="1.6"/>
<text x="1016" y="128" class="ct">Code &amp; CI<tspan class="cs" dx="10">GitHub</tspan></text>
<rect x="1320" y="100" width="290" height="560" rx="16" fill="#ECFDF5" stroke="#10B981" stroke-width="1.6"/>
<text x="1336" y="128" class="ct">4  Ship<tspan class="cs" dx="10"></tspan></text>
<rect x="470" y="690" width="450" height="120" rx="16" fill="#F5F3FF" stroke="#8B5CF6" stroke-width="1.6"/>
<text x="486" y="718" class="ct">3  Human gate<tspan class="cs" dx="10"></tspan></text>
<rect x="30" y="850" width="1580" height="135" rx="16" fill="#F9FAFB" stroke="#9CA3AF" stroke-width="1.6"/>
<text x="46" y="878" class="ct">Platform services<tspan class="cs" dx="10">shared by every agent</tspan></text>
<rect x="55" y="145" width="220" height="70" rx="10" fill="#DBEAFE" stroke="#374151" stroke-width="1.3"/>
<text x="165.0" y="176.0" class="nt">GitHub Issue</text>
<text x="165.0" y="194.0" class="ns">label: agent:build</text>
<rect x="55" y="265" width="220" height="70" rx="10" fill="#FFFFFF" stroke="#374151" stroke-width="1.3"/>
<text x="165.0" y="296.0" class="nt">API Gateway</text>
<text x="165.0" y="314.0" class="ns">webhook endpoint</text>
<rect x="55" y="385" width="220" height="70" rx="10" fill="#FFFFFF" stroke="#374151" stroke-width="1.3"/>
<text x="165.0" y="416.0" class="nt">Lambda</text>
<text x="165.0" y="434.0" class="ns">validate + enqueue</text>
<rect x="55" y="505" width="220" height="80" rx="10" fill="#FFFFFF" stroke="#374151" stroke-width="1.3"/>
<text x="165.0" y="541.0" class="nt">SQS Job Queue</text>
<text x="165.0" y="559.0" class="ns">retries + dead-letter queue</text>
<path d="M165,215 L165,263" fill="none" stroke="#374151" stroke-width="2.4" marker-end="url(#arr)"/>
<text x="175" y="244" class="el" fill="#374151" text-anchor="start">webhook</text>
<path d="M165,335 L165,383" fill="none" stroke="#374151" stroke-width="2.4" marker-end="url(#arr)"/>
<path d="M165,455 L165,503" fill="none" stroke="#374151" stroke-width="2.4" marker-end="url(#arr)"/>
<rect x="355" y="325" width="230" height="120" rx="10" fill="#FDE68A" stroke="#D97706" stroke-width="2.6"/>
<text x="470.0" y="363.0" class="nt">LangGraph Supervisor</text>
<text x="470.0" y="381.0" class="ns">routes work · retry caps</text>
<text x="470.0" y="399.0" class="ns">pauses for approval</text>
<text x="470.0" y="417.0" class="ns">checkpoint after every step</text>
<path d="M275,545 C320,545 320,420 353,420" fill="none" stroke="#374151" stroke-width="2.4" marker-end="url(#arr)"/>
<text x="322" y="500" class="el" fill="#374151" text-anchor="start">job</text>
<rect x="655" y="140" width="225" height="66" rx="10" fill="#FEF3C7" stroke="#374151" stroke-width="1.3"/>
<text x="767.5" y="160.0" class="nt">① Planner</text>
<text x="767.5" y="178.0" class="np">read-only</text>
<text x="767.5" y="196.0" class="ns">plan + acceptance criteria</text>
<path d="M585,385 C620,385 620,173.0 653,173.0" fill="none" stroke="#374151" stroke-width="1.6" marker-end="url(#arr)"/>
<rect x="655" y="222" width="225" height="66" rx="10" fill="#FEF3C7" stroke="#374151" stroke-width="1.3"/>
<text x="767.5" y="242.0" class="nt">② Coder</text>
<text x="767.5" y="260.0" class="np">push agent/* only</text>
<text x="767.5" y="278.0" class="ns">branch + draft PR</text>
<path d="M585,385 C620,385 620,255.0 653,255.0" fill="none" stroke="#374151" stroke-width="1.6" marker-end="url(#arr)"/>
<rect x="655" y="304" width="225" height="66" rx="10" fill="#FEF3C7" stroke="#374151" stroke-width="1.3"/>
<text x="767.5" y="324.0" class="nt">③ Reviewer</text>
<text x="767.5" y="342.0" class="np">comment-only</text>
<text x="767.5" y="360.0" class="ns">review diff vs plan</text>
<path d="M585,385 C620,385 620,337.0 653,337.0" fill="none" stroke="#374151" stroke-width="1.6" marker-end="url(#arr)"/>
<rect x="655" y="386" width="225" height="66" rx="10" fill="#FEF3C7" stroke="#374151" stroke-width="1.3"/>
<text x="767.5" y="406.0" class="nt">④ Tester</text>
<text x="767.5" y="424.0" class="np">push tests · read CI</text>
<text x="767.5" y="442.0" class="ns">tests + CI results</text>
<path d="M585,385 C620,385 620,419.0 653,419.0" fill="none" stroke="#374151" stroke-width="1.6" marker-end="url(#arr)"/>
<rect x="655" y="468" width="225" height="66" rx="10" fill="#D1FAE5" stroke="#374151" stroke-width="1.3"/>
<text x="767.5" y="488.0" class="nt">⑥ Deployer</text>
<text x="767.5" y="506.0" class="np">merge + deploy · no code edits</text>
<text x="767.5" y="524.0" class="ns">ship + watch health</text>
<path d="M585,385 C620,385 620,501.0 653,501.0" fill="none" stroke="#374151" stroke-width="1.6" marker-end="url(#arr)"/>
<rect x="655" y="550" width="225" height="66" rx="10" fill="#D1FAE5" stroke="#374151" stroke-width="1.3"/>
<text x="767.5" y="570.0" class="nt">⑦ Reporter</text>
<text x="767.5" y="588.0" class="np">comment on issue</text>
<text x="767.5" y="606.0" class="ns">summary · PR link · cost</text>
<path d="M585,385 C620,385 620,583.0 653,583.0" fill="none" stroke="#374151" stroke-width="1.6" marker-end="url(#arr)"/>
<path d="M880,334 C910,334 910,262 882,262" fill="none" stroke="#DC2626" stroke-width="1.8" stroke-dasharray="7,5" marker-end="url(#red)"/>
<text x="946" y="292" class="el" fill="#DC2626">changes</text><text x="946" y="307" class="el" fill="#DC2626">(max 3)</text>
<path d="M880,422 C935,422 935,272 882,272" fill="none" stroke="#DC2626" stroke-width="1.8" stroke-dasharray="7,5" marker-end="url(#red)"/>
<text x="946" y="400" class="el" fill="#DC2626">CI failed</text>
<rect x="1025" y="145" width="240" height="90" rx="10" fill="#FEE2E2" stroke="#EF4444" stroke-width="1.6"/>
<text x="1145.0" y="177.0" class="nt">Coder Sandbox</text>
<text x="1145.0" y="195.0" class="ns">throwaway container</text>
<text x="1145.0" y="213.0" class="ns">no prod creds · restricted egress</text>
<rect x="1025" y="295" width="240" height="70" rx="10" fill="#E5E7EB" stroke="#374151" stroke-width="1.3"/>
<text x="1145.0" y="326.0" class="nt">Repository</text>
<text x="1145.0" y="344.0" class="ns">agent/* branches + PRs</text>
<rect x="1025" y="430" width="240" height="80" rx="10" fill="#E5E7EB" stroke="#374151" stroke-width="1.3"/>
<text x="1145.0" y="457.0" class="nt">GitHub Actions</text>
<text x="1145.0" y="475.0" class="ns">CI: tests · lint · security scan</text>
<text x="1145.0" y="493.0" class="ns">CD: deploy workflow</text>
<path d="M880,248 C960,248 970,190 1023,190" fill="none" stroke="#EF4444" stroke-width="1.8" stroke-dasharray="3,4" marker-end="url(#red)"/>
<text x="945" y="180" class="el" fill="#DC2626" text-anchor="start">runs code</text>
<path d="M1145,235 L1145,293" fill="none" stroke="#374151" stroke-width="1.8" marker-end="url(#arr)"/>
<text x="1155" y="270" class="el" fill="#374151" text-anchor="start">push, open PR</text>
<path d="M1145,365 L1145,428" fill="none" stroke="#374151" stroke-width="1.8" marker-end="url(#arr)"/>
<text x="1155" y="402" class="el" fill="#374151" text-anchor="start">PR triggers CI</text>
<path d="M880,500 C960,500 970,470 1023,470" fill="none" stroke="#374151" stroke-width="1.8" marker-end="url(#arr)"/>
<text x="952" y="478" class="el" fill="#374151" text-anchor="middle">merge + deploy</text>
<rect x="1350" y="435" width="230" height="70" rx="10" fill="#FFFFFF" stroke="#374151" stroke-width="1.3"/>
<text x="1465.0" y="466.0" class="nt">Staging</text>
<text x="1465.0" y="484.0" class="ns">ECS Fargate + ALB</text>
<rect x="1350" y="560" width="230" height="80" rx="10" fill="#FFFFFF" stroke="#374151" stroke-width="1.3"/>
<text x="1465.0" y="587.0" class="nt">CloudWatch</text>
<text x="1465.0" y="605.0" class="ns">health checks · error rate</text>
<text x="1465.0" y="623.0" class="ns">rollback trigger</text>
<path d="M1265,470 L1348,470" fill="none" stroke="#374151" stroke-width="2.4" marker-end="url(#arr)"/>
<text x="1306" y="462" class="el" fill="#374151" text-anchor="middle">deploy</text>
<path d="M1465,505 L1465,558" fill="none" stroke="#374151" stroke-width="2.4" marker-end="url(#arr)"/>
<path d="M1350,625 C1150,655 960,640 920,530 L882,512" fill="none" stroke="#DC2626" stroke-width="1.8" stroke-dasharray="7,5" marker-end="url(#red)"/>
<text x="1160" y="655" class="el" fill="#DC2626" text-anchor="middle">unhealthy: rollback</text>
<text x="1465" y="160" class="ns" style="font-size:13px" text-anchor="middle">⑥ Deployer merges and</text>
<text x="1465" y="178" class="ns" style="font-size:13px" text-anchor="middle">triggers the deploy workflow,</text>
<text x="1465" y="196" class="ns" style="font-size:13px" text-anchor="middle">then watches health and</text>
<text x="1465" y="214" class="ns" style="font-size:13px" text-anchor="middle">rolls back on failure.</text>
<rect x="495" y="730" width="190" height="64" rx="10" fill="#FFFFFF" stroke="#374151" stroke-width="1.3"/>
<text x="590.0" y="758.0" class="nt">SNS / Slack</text>
<text x="590.0" y="776.0" class="ns">plan · diff · review · tests</text>
<rect x="710" y="730" width="190" height="64" rx="10" fill="#EDE9FE" stroke="#7C3AED" stroke-width="2.4"/>
<text x="805.0" y="767.0" class="nt">⑤ You: Approve / Reject</text>
<path d="M450,445 L450,762 L493,762" fill="none" stroke="#374151" stroke-width="1.8" marker-end="url(#arr)"/>
<text x="460" y="620" class="el" fill="#374151" text-anchor="start">request approval</text>
<path d="M685,762 L708,762" fill="none" stroke="#374151" stroke-width="1.8" marker-end="url(#arr)"/>
<path d="M805,728 L805,675 L540,675 L540,447" fill="none" stroke="#7C3AED" stroke-width="2.6" marker-end="url(#pur)"/>
<text x="550" y="668" class="el" fill="#7C3AED" text-anchor="start">approve / reject</text>
<rect x="55" y="895" width="287" height="74" rx="10" fill="#FFFFFF" stroke="#374151" stroke-width="1.3"/>
<text x="198.5" y="919.0" class="nt">Tool Gateway (MCP)</text>
<text x="198.5" y="937.0" class="ns">role check before every call</text>
<text x="198.5" y="955.0" class="ns">audit log · rate limits</text>
<rect x="362" y="895" width="287" height="74" rx="10" fill="#FFFFFF" stroke="#374151" stroke-width="1.3"/>
<text x="505.5" y="928.0" class="nt">Secrets Manager</text>
<text x="505.5" y="946.0" class="ns">per-agent GitHub App tokens</text>
<rect x="669" y="895" width="287" height="74" rx="10" fill="#FFFFFF" stroke="#374151" stroke-width="1.3"/>
<text x="812.5" y="919.0" class="nt">Amazon Bedrock · Claude</text>
<text x="812.5" y="937.0" class="ns">strong: coder, reviewer</text>
<text x="812.5" y="955.0" class="ns">cheap: planner, reporter</text>
<rect x="976" y="895" width="287" height="74" rx="10" fill="#FFFFFF" stroke="#374151" stroke-width="1.3"/>
<text x="1119.5" y="919.0" class="nt">Aurora Postgres</text>
<text x="1119.5" y="937.0" class="ns">checkpoints · job history</text>
<text x="1119.5" y="955.0" class="ns">pgvector</text>
<rect x="1283" y="895" width="287" height="74" rx="10" fill="#FFFFFF" stroke="#374151" stroke-width="1.3"/>
<text x="1426.5" y="919.0" class="nt">Langfuse + evals</text>
<text x="1426.5" y="937.0" class="ns">traces · cost · latency</text>
<text x="1426.5" y="955.0" class="ns">pass rate on 20 test issues</text>
<path d="M380,445 L380,848" fill="none" stroke="#6B7280" stroke-width="1.8" stroke-dasharray="4,4" marker-end="url(#gry)"/>
<text x="390" y="835" class="el" fill="#6B7280">LLM calls · tools · state · traces</text>
<rect x="1320" y="690" width="290" height="140" rx="12" fill="white" stroke="#D1D5DB"/>
<text x="1336" y="716" class="ct" style="font-size:15px">Legend</text>
<line x1="1336" y1="734" x2="1376" y2="734" stroke="#374151" stroke-width="2.4"/>
<text x="1386" y="738" class="ns" style="text-anchor:start;font-size:12.5px">main flow</text>
<line x1="1336" y1="754" x2="1376" y2="754" stroke="#DC2626" stroke-width="2.4" stroke-dasharray="7,5"/>
<text x="1386" y="758" class="ns" style="text-anchor:start;font-size:12.5px">retry / rollback loop</text>
<line x1="1336" y1="774" x2="1376" y2="774" stroke="#7C3AED" stroke-width="2.4"/>
<text x="1386" y="778" class="ns" style="text-anchor:start;font-size:12.5px">human decision</text>
<line x1="1336" y1="794" x2="1376" y2="794" stroke="#6B7280" stroke-width="2.4" stroke-dasharray="4,4"/>
<text x="1386" y="798" class="ns" style="text-anchor:start;font-size:12.5px">platform dependency</text>
<text x="1336" y="822" class="ns" style="text-anchor:start;font-size:12px">①–⑦ order of steps · italic = permissions</text>
</svg>